<svg width="18" height="18" viewBox="0 0 18 18" fill="none" xmlns="http://www.w3.org/2000/svg">
<path d="M0.0810531 6.92282C0.275748 4.30684 0.373095 2.99884 1.68597 1.68597C2.99884 0.373095 4.30684 0.275748 6.92282 0.0810532C7.60095 0.0305834 8.30048 0 9 0C9.69952 0 10.399 0.0305833 11.0772 0.0810531C13.6932 0.275748 15.0012 0.373095 16.314 1.68597C17.6269 2.99884 17.7243 4.30684 17.9189 6.92282C17.9694 7.60095 18 8.30048 18 9C18 9.69952 17.9694 10.399 17.9189 11.0772C17.7243 13.6932 17.6269 15.0012 16.314 16.314C15.0012 17.6269 13.6932 17.7243 11.0772 17.9189C10.399 17.9694 9.69952 18 9 18C8.30048 18 7.60095 17.9694 6.92282 17.9189C4.30684 17.7243 2.99884 17.6269 1.68597 16.314C0.373095 15.0012 0.275748 13.6932 0.0810532 11.0772C0.0305834 10.399 0 9.69952 0 9C0 8.30048 0.0305833 7.60095 0.0810531 6.92282Z" fill="#2662F3"/>
<path fill-rule="evenodd" clip-rule="evenodd" d="M13.2074 7.2054C13.5979 6.81487 13.5979 6.18171 13.2074 5.79118C12.8168 5.40066 12.1837 5.40066 11.7932 5.79118L8.00026 9.58408L6.70737 8.29118C6.31684 7.90066 5.68368 7.90066 5.29315 8.29118C4.90263 8.68171 4.90263 9.31487 5.29315 9.7054L7.29315 11.7054C7.68368 12.0959 8.31684 12.0959 8.70737 11.7054L13.2074 7.2054Z" fill="white"/>
<g style="mix-blend-mode:multiply">
<path d="M0.0810531 6.92282C0.275748 4.30684 0.373095 2.99884 1.68597 1.68597C2.99884 0.373095 4.30684 0.275748 6.92282 0.0810532C7.60095 0.0305834 8.30048 0 9 0C9.69952 0 10.399 0.0305833 11.0772 0.0810531C13.6932 0.275748 15.0012 0.373095 16.314 1.68597C17.6269 2.99884 17.7243 4.30684 17.9189 6.92282C17.9694 7.60095 18 8.30048 18 9C18 9.69952 17.9694 10.399 17.9189 11.0772C17.7243 13.6932 17.6269 15.0012 16.314 16.314C15.0012 17.6269 13.6932 17.7243 11.0772 17.9189C10.399 17.9694 9.69952 18 9 18C8.30048 18 7.60095 17.9694 6.92282 17.9189C4.30684 17.7243 2.99884 17.6269 1.68597 16.314C0.373095 15.0012 0.275748 13.6932 0.0810532 11.0772C0.0305834 10.399 0 9.69952 0 9C0 8.30048 0.0305833 7.60095 0.0810531 6.92282Z" fill="#BCC3D0" fill-opacity="0.5"/>
</g>
</svg>
